<?xml version="1.0" encoding="UTF-8"?><svg id="a" xmlns="http://www.w3.org/2000/svg" viewBox="0 0 1136 1533"><g id="b"><path id="c" d="M882.56,866.41c-13.88-65.76-63.11-116.79-129.32-142.21-12.73-7.2-25.06-38.08-42.17-43.74-2.74-.91,1.59,6.31,0,6.74-5.66,1.54-11.99,1.7-18.24-3.85-11.16-9.92-14.66-38.9-21.45-52-35.79-69.09-125.15-42.05-137.13,34.32-8.35,5.44-20.15,10.23-29.23,14.62-9.36,4.51-17.59,15.45-27.23,19.36-8.6,3.49-22.78,1.02-31.45,4.06-39.87,13.99-73.65,31.64-100.12,67.4-5.58,7.54-11.87,16.81-16.94,24.43-26.17,30.13-44.35,63.9-61.1,100.14-46.85,106.35-59.59,224.11-71.02,338.69.26,20.05-13.04,75.64,6.63,85.26-1.18,1.22-.75,3.67,1.43,3.65,49.89-.5,99.67,3.96,148.79,12.64,23.7,4.19,47.27,9.93,71.41,10.88,50.11-.35,100.04-8.74,150.09-.8,60.16,0,133.28-1.75,200.21-4.33,62.55-2.4,125.44,3.03,187.22-7.61,4.89-.77,7.28-6.74,6.25-11.01-7.25-26.41-10.81-53.59-14.87-80.62.81-17.34-.64-35.44-7.05-51.59-16.76-109.02-38.25-217.33-64.7-324.41Z" fill="#fff" fill-rule="evenodd"/><path id="d" d="M862.37,1009.71c-1.32,6.41-3.17,12.82-5.63,18.89-2.37,5.86-5.94,11.11-8.4,16.9-.33.78-.87,1.37-1.52,1.82l.2,1.58h0l.19,1.58c1.23,10.63,2.61,21.23,3.8,31.85l.58,5.32c2.35,22.19,6.06,44.27,8.94,66.4,2.82,21.67,5.69,43.34,8.76,64.98,3.17,22.31,6.4,44.59,10.17,66.81,1.59,9.38,3.25,18.76,4.98,28.13l1.34,7.17c13.76,3.31,17.52,22.49,3.51,29.57-6.36,3.2-14.53,2.43-19.77-2.6-5.45-5.24-5.67-14.69-6.94-21.79l-1.22-6.6c-9.11-49.6-17.02-99.78-20.72-150.08-.95-12.99-1.75-25.99-2.27-39-.49-12.24-.26-24.47-.45-36.71l-.06-3.34c-.29-13.05-.05-26.08.29-39.13.04-1.59.11-3.18.19-4.78-.46-.54-.79-1.18-.93-1.8l-.18-.82c-.45-2.11.06-4.58,1.68-6.09.7-8.89,1.62-17.77,1.87-26.65.02-.73,1.07-.71,1.13,0,.59,7.56,1.77,15.14,2.95,22.71,7.59-6.1,13.2-16.16,16.51-24.58.24-.61,1.13-.39.99.27ZM682.79,656.29c1.26,5.76,3.75,10.93,7.09,15.74,1.59,2.3,3.4,4.44,5.57,6.23,1.86,1.53,3.98,2.53,5.96,3.86,2.88-.45,5.89.64,7.91,2.76l-.32-3.1c-.1-1,1.56-1.2,1.75-.23,8.75,44.12,16.73,88.27,23.63,132.71l3.03,19.63,2.85,18.42c4.73,30.7,9.3,61.39,12.75,92.32,4.59,41.27,8.45,82.65,11.27,124.09,2.83,41.73,4.57,83.49,5.81,125.3.31,10.54.64,21.07.96,31.61l2.14-12.6c2.13-12.6,4.22-25.22,6.01-37.88,6.43-45.31,11.57-90.94,14.08-136.64,2.3-41.82,1.53-84.47-9.11-125.21-2.68-10.25-5.96-20.34-9.92-30.17-3.84-9.56-9.08-18.42-13.21-27.84-4.8-10.96-6.24-21.3-3.77-33.1,2.16-10.28,5.95-19.95,6.63-30.53,1.27-19.64-5.12-38.66-14.15-55.85-2.38-4.53-4.89-9-7.51-13.43-7.93-13.39-16.87-26.29-26.15-38.66-.5-.66.56-1.39,1.1-.85,8.46,8.36,17.71,16.58,25.32,25.71,3.7,4.44,7.31,8.97,10.73,13.62,37.52,6.27,69.76,29.64,91.8,60.5,25.01,35.02,37.66,77.17,47.02,118.68,10.41,46.13,19.19,92.68,28.54,139.04,9.68,47.97,19.31,95.94,29.05,143.9,4.84,23.81,9.68,47.62,14.51,71.44,2.45,12.06,5.02,24.09,7.71,36.11,1.38,6.16,2.86,12.31,4.14,18.49,1.44,6.97.1,11.43-4.62,16.55-1.74,1.9-4.49,1.87-6.65.86l-.68-.32-.65-.32c-2.67-1.31-4.77-2.67-6.43-5.6-1.83-3.21-2.12-6.77-2.75-10.34-1.16-6.57-2.31-13.14-3.47-19.72-1.73-9.84-3.62-19.65-5.54-29.46l-9.62-49.02c-2.57-13.07-5.14-26.14-7.72-39.21-9.23-46.72-18.47-93.43-27.71-140.14-8.87-44.85-16.72-90.01-26.82-134.6l-.57-2.51-.58-2.51c-9.03-38.44-21.65-75.62-44.54-108.2-17.62-25.05-42.09-47.42-70.91-58.74,2.03,2.92,3.98,5.9,5.84,8.94,11.68,19.08,20.21,41.73,18.21,64.45-.98,11.1-5.2,22.01-4.8,33.2.37,9.94,6.52,18.67,10.77,27.32,9.65,19.6,16.63,40.43,21.13,61.8,9.03,42.91,9,87.06,5.89,130.62-3.38,47.35-9.8,94.69-17.11,141.58-3.75,24.05-8.74,47.9-12.56,71.91-1.89,11.84-4.46,23.65-6.71,35.43l-1.07,5.63c-.6,3.12-1.22,6.24-1.94,9.32l-.44,1.84v.33c-.02,2.27-.64,4.15-1.64,5.65-1.37,4.39-3.07,8.67-5.33,12.78-1.16,2.1-2.84,3.28-4.67,3.71-1.84,4.21-6.01,7.45-10.99,7.43l-65.49-.25c-38.04-.15-76.08-.4-114.12-.61-9.6-.05-19.19-.23-28.78-.48-8.99-.25-17.61-1.33-26.5-2.45-10.04-1.26-15.48-8.37-13.98-18.4.33-2.21.69-4.41,1.03-6.61-2,.66-4.38.35-5.99-1.22l-1.51-1.48c-2.09-2.07-3.96-4.1-5.29-6.86-1.37-2.84-2.48-5.84-3.69-8.74-2.61-6.24-5.15-12.5-7.62-18.79-4.95-12.58-9.9-25.21-14.5-37.92-9.11-25.17-17.17-50.72-24.18-76.56-12.5-46.1-21.54-93.09-27.24-140.5l-1.36-11.3-.4-3.34c-2.16-18.38-3.98-37.04-3.12-55.37.53-11.48,2.31-23.05,6.6-33.77,3.96-9.89,10.07-18.35,15.88-27.19l.66-1.02.67-1.05c5.08-8.03,9.12-16.42,9.33-26.17.21-9.9-2.68-19.53-5.9-28.79l-.8-2.28-.54-1.51c-6.86-19.15-14.66-38.02-12.09-58.85,3.8-30.68,22.4-55.41,45.8-74.48-20.81,4.12-41.41,12.26-59.59,22.58-21.47,12.2-40.8,28.3-57.47,46.47-31.5,34.34-53.99,75.54-72.4,118.08-19.27,44.52-33.56,91.17-44.33,138.43-10.83,47.53-18.08,95.82-23.03,144.3-2.47,24.13-4.41,48.32-6.02,72.52-.82,12.4-1.44,24.82-2.4,37.2-.96,12.37-1.39,24.93-4.41,36.97-1.41,5.61-10.92,6.18-11.94,0-2.26-13.8-1.63-28.07-1-42.05l.06-1.27c.62-13.92,1.43-27.83,2.39-41.74,1.96-28.43,4.58-56.82,8-85.12,11.99-99.34,34.1-198.16,77.47-288.84,20.42-42.71,46.63-84.21,83.09-115.05,17.36-14.67,36.93-26.38,58.02-34.86,18.86-7.59,38.02-11.18,58.06-11.17,10.05-7.7,20.84-14.41,31.62-20.14.65-.35,1.33.49.79,1.03-.28.27-.55.55-.83.81,1.22.08,2.48.65,3.61,1.84,3.96,4.15,7.3,9.34,10.29,14.73,4.55,5.68,8.89,11.55,13.43,17.17,7.27,9,14.71,17.87,22.24,26.67,12.65,14.79,25.71,29.3,39.33,43.22l2.27,2.32c7.06,7.15,14.21,15.71,22.56,21.37l.45.3c3.52,2.29,6.02,2.71,9.02-.72,2.73-3.12,5-6.74,7.34-10.18l.54-.79c11.93-17.33,22.99-35.3,33-53.8,4.56-8.42,8.9-16.96,13.02-25.6l1.23-2.59c2.24-4.76,4.67-9.43,6.52-14.33.43-1.15.85-2.3,1.26-3.44-6.3-4.13-11.18-13.07-12.95-20.07-1.84-7.27-.91-14.73,2.37-21.38.62-1.25,2.7-.94,3,.39ZM372,951.72c-.87,27.64-1.4,55.31-2.7,82.93l-.45,9.43c2.03,2.26,3.22,4.87,2.27,8.45-.37,1.37-1.46,2.61-2.82,3.07l-.42,8.77c-1.93,39.44-4.19,78.81-8.33,118.15-5.17,49.24-11.15,98.4-17.12,147.55-.85,6.96-5.69,12.48-13.22,11.46-7.62-1.03-10.71-7.66-9.71-14.57,3.93-27.11,7.71-54.24,11.02-81.44l3.77-30.99c4.73-38.74,9.57-77.47,15.14-116.08,2.33-16.14,4.75-32.27,7.18-48.4l-.85-1.1c-3.47-4.51-7.06-8.92-10.61-13.36-6.82-8.56-13.55-17.05-19.8-26.01-.31-.45.32-1.11.77-.77,8.76,6.47,17.05,13.39,25.39,20.42l7.3,6.18c4.2-27.87,8.36-55.75,12.07-83.69.09-.7,1.14-.75,1.12,0ZM498.01,687.2c-5.27,4.97-10.66,9.83-15.97,14.77l-1.95,1.82-1.94,1.83c-9.33,8.85-18.28,18.06-25.73,28.65-13.68,19.43-21.83,43.12-16.14,66.84,4.72,19.65,15.55,37.46,18.46,57.6,1.46,10.09.75,20.23-3.05,29.76-3.88,9.72-10.08,18.05-15.65,26.82-12.1,19.06-13.75,39.98-12.55,62.06,1.26,23.06,3.91,46.13,7.18,68.98,6.62,46.3,16.6,92.12,29.81,136.99,6.61,22.47,14.42,44.46,22.19,66.54,3.87,10.99,8.38,21.72,13.03,32.4,2.45,5.62,4.96,11.21,7.51,16.79-.94-7.88-.94-15.97-1.4-23.8-.66-11.22-1.5-22.42-2.27-33.63-1.57-22.75-2.97-45.52-4.22-68.29-4.43-81.2-7.69-162.47-7.45-243.8.12-40.67.95-81.34,2.7-121.97.82-19.13,2.41-38.25,3.85-57.35l.3-4.09c1.27-17.15,2.79-34.34,5.4-51.34-.77-1.74-1.44-3.51-1.94-5.32l-.18-.68.13.02c-.12-.53-.16-1.06-.13-1.58ZM543.59,617.32c.11-.47.78-.43.9,0,2.97,10,1.92,21-.64,31.06-1.38,5.45-3.34,10.74-5.71,15.84l-.83,1.78c-2.03,4.34-4.32,8.82-8.27,11.53-1.65,1.13-4.6,1.2-6.25,0l-.84-.64c-.14-.11-.28-.22-.41-.33-1.54-1.29-2.3-4.14-1.59-6.02,1.83-4.85,5.98-8.41,8.85-12.73,2.54-3.84,4.79-7.89,6.66-12.1,4.03-9.11,5.84-18.78,8.13-28.39Z" fill-rule="evenodd"/></g></svg>