<?xml version="1.0" encoding="UTF-8"?><svg id="a" xmlns="http://www.w3.org/2000/svg" viewBox="0 0 1136 1533"><g id="b"><path id="c" d="M713.25,591.96l.69-.16c5.52-1.3,10.84-3.07,15.99.35,4.9,3.26,5.58,9.29,1.76,13.69-3.93,4.52-9.14,4.27-14.65,4.33h-.34c-4.57.07-9.22,0-13.77-.41-4.24-.38-8.52-.98-12.71-1.77l-2.48-.49c-2.54-.51-5.03-1.18-6.34-3.63-2.28-4.28,14.65-7.63,16.71-8.22,4.99-1.42,10.08-2.55,15.14-3.69ZM722.64,540.39c-2.7,2.8-6.26,4.71-10.27,5.9-10.06,2.99-22.89,1.4-31.11-1.65-1.7-.63-3.3-1.92-4.21-3.53-.84-1.47-1.12-3.2-.48-4.97.18-.5.4-.99.62-1.48.6-1.32,1.83-2.35,3.27-2.93,1.5-.61,3.2-.73,4.57-.3.18.06.37.12.56.18,5.21,1.64,13.74,4.36,20.82,3.83,4.24-.32,7.98-1.82,9.91-5.7,1.02-2.05.74-4.07-.17-5.93-1.36-2.8-4.09-5.23-6.38-6.9-3.24-2.36-6.69-3.31-10.26-4.3-1.35-.38-2.71-.76-4.08-1.21-.45-.15-.85-.44-1.15-.83-.29-.38-.49-.84-.55-1.3-.06-.48.01-.96.24-1.37.21-.38.54-.72,1.03-.94,6.99-3.13,16.02-1.06,22.84,3.86,3.41,2.46,6.25,5.62,8,9.15,1.63,3.28,2.32,6.88,1.68,10.54-.71,4.11-2.45,7.35-4.88,9.87ZM608.14,470.55c1.96-.86,3.58,3.18,3.98,4.29l.84,2.29c1.36,3.69,2.93,7.45,5.79,10.19,2.4,2.29,6.24,4.24,9.03,1.56,2.64-2.55,1.35-5.42,1.74-8.54.7-5.65,8.41-11.3,13.04-5.4,10.47,13.33-5.73,31.86-20.65,28.61-7.59-1.65-13.69-7.74-16.2-14.97l-.13-.38c-1.5-4.58-3.02-15.17,2.56-17.63ZM743.22,479.83l-.07-.17c-4.99-11.34,12.8-16.22,14.31-6.03l.1.69c1.47,11.3-1.62,26.51-15.47,27.63-15.54,1.27-22.01-16.07-20.63-28.8.25-2.28,3.01-2.59,3.87-.52l.18.45c2.51,6.4,4.89,18.69,13.73,18.68,5.91,0,5.63-7.98,3.98-11.93h0ZM754.5,447c8.93-.32,8.92,13.67,0,13.88-29.8.7-59.63,1.63-89.44,1.79l-5.42.03c-28,.19-56.1.57-84.02-1.78-2.38-.2-1.94-3.55.05-3.41,29.27-4.17,58.9-5.38,88.39-6.97,30.12-1.62,60.29-2.47,90.43-3.54Z" fill-rule="evenodd"/></g></svg>